<svg width="69" height="63" viewBox="0 0 69 63" fill="none" xmlns="http://www.w3.org/2000/svg">
<g filter="url(#filter0_di_1208_1145)">
<rect x="2" y="0.444336" width="62.943" height="58.2278" rx="4.23771" fill="white" shape-rendering="crispEdges"/>
<g clip-path="url(#clip0_1208_1145)">
<path d="M33.4715 47.0297C23.8237 47.0297 16 39.2059 16 29.5582C16 19.9104 23.8237 12.0867 33.4715 12.0867C43.1193 12.0867 50.943 19.9104 50.943 29.5582C50.943 39.2059 43.1193 47.0297 33.4715 47.0297Z" fill="#25D366"/>
<path fill-rule="evenodd" clip-rule="evenodd" d="M41.6384 21.4239C39.4719 19.254 36.5856 18.0589 33.5141 18.0554C27.1859 18.0554 22.0318 23.206 22.0318 29.5377C22.0318 31.5609 22.5595 33.5387 23.5658 35.2788L21.9375 41.2296L28.0246 39.6327C29.7018 40.5482 31.5888 41.0304 33.5106 41.0304H33.5141C39.8423 41.0304 44.9929 35.8798 44.9964 29.5482C44.9999 26.4802 43.8083 23.5939 41.6384 21.4239ZM33.5176 39.0911H33.5141C31.8019 39.0911 30.1212 38.6299 28.657 37.7598L28.3076 37.5536L24.6945 38.5006L25.6589 34.9783L25.4318 34.6184C24.4779 33.0984 23.9712 31.3442 23.9712 29.5377C23.9747 24.2753 28.2552 19.9948 33.5211 19.9948C36.0719 19.9948 38.4655 20.9906 40.2686 22.7937C42.0717 24.5968 43.064 26.9973 43.0605 29.5447C43.0605 34.8106 38.7765 39.0911 33.5176 39.0911ZM38.7521 31.9418C38.4655 31.7985 37.0538 31.1031 36.7918 31.0088C36.5297 30.9144 36.3375 30.8655 36.1453 31.1521C35.9531 31.4386 35.4045 32.085 35.2368 32.2772C35.0691 32.4694 34.9014 32.4939 34.6148 32.3506C34.3283 32.2073 33.4023 31.9033 32.3086 30.9249C31.456 30.1632 30.8794 29.2232 30.7117 28.9367C30.544 28.6501 30.6942 28.4929 30.8375 28.3496C30.9668 28.2203 31.124 28.0142 31.2673 27.8465C31.4105 27.6787 31.4595 27.5599 31.5538 27.3677C31.6482 27.1755 31.6027 27.0078 31.5294 26.8646C31.456 26.7213 30.8829 25.3096 30.6453 24.733C30.4112 24.1739 30.1771 24.2508 29.9988 24.2403C29.8311 24.2333 29.6389 24.2298 29.4502 24.2298C29.2581 24.2298 28.9471 24.3032 28.685 24.5898C28.4229 24.8763 27.6821 25.5717 27.6821 26.9834C27.6821 28.3951 28.7095 29.7613 28.8527 29.95C28.996 30.1422 30.8759 33.039 33.7552 34.283C34.4401 34.58 34.9747 34.7547 35.3906 34.8875C36.0789 35.1076 36.7044 35.0762 37.1971 35.0028C37.7492 34.9189 38.8953 34.3074 39.133 33.64C39.3706 32.9691 39.3706 32.396 39.3007 32.2772C39.2308 32.1584 39.0386 32.0885 38.7521 31.9418Z" fill="white"/>
</g>
</g>
<defs>
<filter id="filter0_di_1208_1145" x="0.940572" y="0.444336" width="67.1808" height="62.4655" filterUnits="userSpaceOnUse" color-interpolation-filters="sRGB">
<feFlood flood-opacity="0" result="BackgroundImageFix"/>
<feColorMatrix in="SourceAlpha" type="matrix" values="0 0 0 0 0 0 0 0 0 0 0 0 0 0 0 0 0 0 127 0" result="hardAlpha"/>
<feOffset dx="1.05943" dy="2.11886"/>
<feGaussianBlur stdDeviation="1.05943"/>
<feComposite in2="hardAlpha" operator="out"/>
<feColorMatrix type="matrix" values="0 0 0 0 0 0 0 0 0 0 0 0 0 0 0 0 0 0 0.08 0"/>
<feBlend mode="normal" in2="BackgroundImageFix" result="effect1_dropShadow_1208_1145"/>
<feBlend mode="normal" in="SourceGraphic" in2="effect1_dropShadow_1208_1145" result="shape"/>
<feColorMatrix in="SourceAlpha" type="matrix" values="0 0 0 0 0 0 0 0 0 0 0 0 0 0 0 0 0 0 127 0" result="hardAlpha"/>
<feOffset/>
<feGaussianBlur stdDeviation="0.529714"/>
<feComposite in2="hardAlpha" operator="arithmetic" k2="-1" k3="1"/>
<feColorMatrix type="matrix" values="0 0 0 0 0 0 0 0 0 0 0 0 0 0 0 0 0 0 0.25 0"/>
<feBlend mode="normal" in2="shape" result="effect2_innerShadow_1208_1145"/>
</filter>
<clipPath id="clip0_1208_1145">
<rect width="34.943" height="34.943" fill="white" transform="translate(16 12.0867)"/>
</clipPath>
</defs>
</svg>
